<?xml version="1.0" encoding="UTF-8" standalone="no"?>
<!-- Created with Inkscape (http://www.inkscape.org/) -->

<svg
   xmlns:dc="http://purl.org/dc/elements/1.1/"
   xmlns:cc="http://creativecommons.org/ns#"
   xmlns:rdf="http://www.w3.org/1999/02/22-rdf-syntax-ns#"
   xmlns:svg="http://www.w3.org/2000/svg"
   xmlns="http://www.w3.org/2000/svg"
   xmlns:sodipodi="http://sodipodi.sourceforge.net/DTD/sodipodi-0.dtd"
   xmlns:inkscape="http://www.inkscape.org/namespaces/inkscape"
   width="210mm"
   height="297mm"
   viewBox="0 0 744.09448819 1052.3622047"
   id="svg6090"
   version="1.1"
   inkscape:version="0.92.4 5da689c313, 2019-01-14"
   sodipodi:docname="infty.svg"
   inkscape:export-filename="/home/sigurdur/Dropbox/Kennsla/HUF/2019/HaskoliUngaFolksins/neikvaedu2.png"
   inkscape:export-xdpi="160"
   inkscape:export-ydpi="160">
  <defs
     id="defs6092">
    <marker
       inkscape:stockid="Arrow1Lend"
       orient="auto"
       refY="0.0"
       refX="0.0"
       id="Arrow1Lend"
       style="overflow:visible;"
       inkscape:isstock="true">
      <path
         id="path6770"
         d="M 0.0,0.0 L 5.0,-5.0 L -12.5,0.0 L 5.0,5.0 L 0.0,0.0 z "
         style="fill-rule:evenodd;stroke:#000000;stroke-width:1pt;stroke-opacity:1;fill:#ffffff;fill-opacity:1"
         transform="scale(0.8) rotate(180) translate(12.5,0)" />
    </marker>
    <marker
       inkscape:stockid="Arrow1Lend"
       orient="auto"
       refY="0"
       refX="0"
       id="Arrow1Lend-4"
       style="overflow:visible"
       inkscape:isstock="true">
      <path
         inkscape:connector-curvature="0"
         id="path6770-5"
         d="M 0,0 5,-5 -12.5,0 5,5 0,0 Z"
         style="fill:#ffffff;fill-opacity:1;fill-rule:evenodd;stroke:#000000;stroke-width:1pt;stroke-opacity:1"
         transform="matrix(-0.8,0,0,-0.8,-10,0)" />
    </marker>
    <marker
       inkscape:stockid="Arrow1Lend"
       orient="auto"
       refY="0"
       refX="0"
       id="Arrow1Lend-3"
       style="overflow:visible"
       inkscape:isstock="true">
      <path
         inkscape:connector-curvature="0"
         id="path6770-6"
         d="M 0,0 5,-5 -12.5,0 5,5 0,0 Z"
         style="fill:#ffffff;fill-opacity:1;fill-rule:evenodd;stroke:#000000;stroke-width:1pt;stroke-opacity:1"
         transform="matrix(-0.8,0,0,-0.8,-10,0)" />
    </marker>
    <marker
       inkscape:stockid="Arrow1Lend"
       orient="auto"
       refY="0"
       refX="0"
       id="Arrow1Lend-37"
       style="overflow:visible"
       inkscape:isstock="true">
      <path
         inkscape:connector-curvature="0"
         id="path6770-4"
         d="M 0,0 5,-5 -12.5,0 5,5 0,0 Z"
         style="fill:#ffffff;fill-opacity:1;fill-rule:evenodd;stroke:#000000;stroke-width:1pt;stroke-opacity:1"
         transform="matrix(-0.8,0,0,-0.8,-10,0)" />
    </marker>
    <marker
       inkscape:stockid="Arrow1Lend"
       orient="auto"
       refY="0"
       refX="0"
       id="Arrow1Lend-2"
       style="overflow:visible"
       inkscape:isstock="true">
      <path
         inkscape:connector-curvature="0"
         id="path6770-54"
         d="M 0,0 5,-5 -12.5,0 5,5 0,0 Z"
         style="fill:#ffffff;fill-opacity:1;fill-rule:evenodd;stroke:#000000;stroke-width:1pt;stroke-opacity:1"
         transform="matrix(-0.8,0,0,-0.8,-10,0)" />
    </marker>
    <marker
       inkscape:stockid="Arrow1Lend"
       orient="auto"
       refY="0"
       refX="0"
       id="Arrow1Lend-37-4"
       style="overflow:visible"
       inkscape:isstock="true">
      <path
         inkscape:connector-curvature="0"
         id="path6770-4-4"
         d="M 0,0 5,-5 -12.5,0 5,5 0,0 Z"
         style="fill:#ffffff;fill-opacity:1;fill-rule:evenodd;stroke:#000000;stroke-width:1pt;stroke-opacity:1"
         transform="matrix(-0.8,0,0,-0.8,-10,0)" />
    </marker>
  </defs>
  <sodipodi:namedview
     id="base"
     pagecolor="#ffffff"
     bordercolor="#666666"
     borderopacity="1.0"
     inkscape:pageopacity="0.0"
     inkscape:pageshadow="2"
     inkscape:zoom="3.959798"
     inkscape:cx="259.742"
     inkscape:cy="829.87503"
     inkscape:document-units="px"
     inkscape:current-layer="layer1"
     showgrid="false"
     inkscape:window-width="1920"
     inkscape:window-height="1056"
     inkscape:window-x="0"
     inkscape:window-y="0"
     inkscape:window-maximized="0" />
  <metadata
     id="metadata6095">
    <rdf:RDF>
      <cc:Work
         rdf:about="">
        <dc:format>image/svg+xml</dc:format>
        <dc:type
           rdf:resource="http://purl.org/dc/dcmitype/StillImage" />
        <dc:title></dc:title>
      </cc:Work>
    </rdf:RDF>
  </metadata>
  <g
     inkscape:label="Layer 1"
     inkscape:groupmode="layer"
     id="layer1">
    <rect
       style="opacity:1;fill:none;fill-opacity:1;stroke:none;stroke-width:2.02900004;stroke-miterlimit:10;stroke-dasharray:none;stroke-dashoffset:0;stroke-opacity:1"
       id="rect6638"
       width="47.477169"
       height="54.548237"
       x="113.13708"
       y="101.80866" />
    <path
       style="opacity:1;fill:none;fill-opacity:1;stroke:#000000;stroke-width:0.57920218;stroke-miterlimit:10;stroke-dasharray:none;stroke-dashoffset:0;stroke-opacity:1"
       d="m 189.5176,181.46571 0.62704,73.1003 4.89178,0.13471 -2.05943,-72.93576 z"
       id="path6640-3"
       inkscape:connector-curvature="0"
       sodipodi:nodetypes="ccccc" />
    <path
       style="opacity:1;fill:#0000ff;fill-opacity:1;stroke:#000000;stroke-width:0.57920218;stroke-miterlimit:10;stroke-dasharray:none;stroke-dashoffset:0;stroke-opacity:1"
       d="m 141.03992,182.67358 0.62704,73.1003 4.89178,0.13471 -2.05943,-72.93576 z"
       id="path6640-3-6"
       inkscape:connector-curvature="0"
       sodipodi:nodetypes="ccccc" />
    <path
       style="opacity:1;fill:#ffffff;fill-opacity:1;stroke:#000000;stroke-width:1;stroke-miterlimit:10;stroke-dasharray:none;stroke-dashoffset:0;stroke-opacity:1;marker-end:url(#Arrow1Lend)"
       d="m 209.28571,221.93363 47.85714,0"
       id="path6761"
       inkscape:connector-curvature="0" />
    <text
       xml:space="preserve"
       style="font-style:normal;font-weight:normal;line-height:0%;font-family:sans-serif;letter-spacing:0px;word-spacing:0px;fill:#000000;fill-opacity:1;stroke:none;stroke-width:1px;stroke-linecap:butt;stroke-linejoin:miter;stroke-opacity:1"
       x="161.28572"
       y="290.74826"
       id="text7396"><tspan
         sodipodi:role="line"
         id="tspan7398"
         x="161.28572"
         y="290.74826"
         style="font-size:25px;line-height:1.25">0</tspan></text>
    <text
       xml:space="preserve"
       style="font-style:normal;font-weight:normal;line-height:0%;font-family:sans-serif;letter-spacing:0px;word-spacing:0px;fill:#000000;fill-opacity:1;stroke:none;stroke-width:1px;stroke-linecap:butt;stroke-linejoin:miter;stroke-opacity:1"
       x="223.24075"
       y="215.04619"
       id="text7396-0-1-9"><tspan
         sodipodi:role="line"
         id="tspan7398-6-4-2"
         x="223.24075"
         y="215.04619"
         style="font-size:25px;line-height:1.25">S</tspan></text>
    <rect
       style="opacity:1;fill:none;fill-opacity:1;stroke:none;stroke-width:1;stroke-miterlimit:10;stroke-dasharray:none;stroke-dashoffset:0;stroke-opacity:1"
       id="rect8270"
       width="369.71582"
       height="143.44167"
       x="111.11678"
       y="160.39751"
       inkscape:export-xdpi="160"
       inkscape:export-ydpi="160" />
    <path
       style="opacity:1;fill:none;fill-opacity:1;stroke:#000000;stroke-width:0.57920218;stroke-miterlimit:10;stroke-dasharray:none;stroke-dashoffset:0;stroke-opacity:1"
       d="m 348.64938,242.72118 -73.09419,-1.13513 -0.25258,4.88711 72.96422,-0.3008 z"
       id="path6640-3-3"
       inkscape:connector-curvature="0"
       sodipodi:nodetypes="ccccc" />
    <path
       style="opacity:1;fill:#0000ff;fill-opacity:1;stroke:#000000;stroke-width:0.57920218;stroke-miterlimit:10;stroke-dasharray:none;stroke-dashoffset:0;stroke-opacity:1"
       d="m 348.61035,194.22847 -73.09418,-1.13513 -0.25259,4.88711 72.96422,-0.3008 z"
       id="path6640-3-6-6"
       inkscape:connector-curvature="0"
       sodipodi:nodetypes="ccccc" />
    <g
       id="g92"
       transform="matrix(0.69456817,0,0,0.69456817,68.215832,23.375392)">
      <g
         word-spacing="normal"
         letter-spacing="normal"
         font-size-adjust="none"
         font-stretch="normal"
         font-weight="normal"
         font-variant="normal"
         font-style="normal"
         stroke-miterlimit="10.433"
         xml:space="preserve"
         transform="matrix(1.1338583,0,0,-1.1338583,-198.4252,841.88976)"
         id="content"
         style="font-style:normal;font-variant:normal;font-weight:normal;font-stretch:normal;letter-spacing:normal;word-spacing:normal;text-anchor:start;fill:none;fill-opacity:1;fill-rule:evenodd;stroke:#000000;stroke-linecap:butt;stroke-linejoin:miter;stroke-miterlimit:10.43299961;stroke-dasharray:none;stroke-dashoffset:0;stroke-opacity:1"><path
           id="path89"
           d="m 480.83,419.7 -0.24,0.31 -0.24,0.29 -0.22,0.29 -0.21,0.26 -0.21,0.26 -0.19,0.24 -0.18,0.23 -0.18,0.22 -0.17,0.2 -0.16,0.2 -0.15,0.19 -0.15,0.17 -0.15,0.17 -0.13,0.16 -0.14,0.16 -0.13,0.15 -0.12,0.14 -0.12,0.13 -0.13,0.13 -0.11,0.13 -0.24,0.23 -0.23,0.23 -0.24,0.22 -0.25,0.22 -0.26,0.22 -0.14,0.11 -0.14,0.11 c -2.79,2.25 -5.59,3.14 -8.12,3.14 -5.83,0 -9.63,-5.46 -9.63,-11.29 h 1.11 c 0,4.87 3.33,8.9 7.72,8.9 2.89,0 5.13,-2.09 6.17,-3.14 1.25,-1.34 2.39,-2.89 5.44,-6.81 v 0 c -2.05,-3.59 -5.73,-8.62 -11.36,-8.62 -5.28,0 -7.97,5.18 -7.97,9.67 h -1.11 c 0,-5.74 3.69,-11.27 9.43,-11.27 5.73,0 9.86,4.53 12.31,8.52 2.69,-3.39 3.28,-4.13 4.83,-5.38 2.78,-2.25 5.57,-3.14 8.12,-3.14 5.83,0 9.61,5.49 9.61,11.31 h -1.09 c 0,-4.89 -3.35,-8.92 -7.72,-8.92 -2.89,0 -5.14,2.1 -6.19,3.14 -1.23,1.35 -2.39,2.89 -5.42,6.83 v 0 c 2.03,3.58 5.72,8.61 11.36,8.61 5.28,0 7.97,-5.17 7.97,-9.66 h 1.09 c 0,5.72 -3.69,11.25 -9.42,11.25 -5.72,0 -9.86,-4.53 -12.3,-8.51 z"
           inkscape:connector-curvature="0"
           style="fill:#000000;stroke-width:0" /></g>    </g>
  </g>
</svg>
