<?xml version="1.0" encoding="UTF-8" standalone="no"?>
<!-- Created with Inkscape (http://www.inkscape.org/) -->

<svg
   xmlns:dc="http://purl.org/dc/elements/1.1/"
   xmlns:cc="http://creativecommons.org/ns#"
   xmlns:rdf="http://www.w3.org/1999/02/22-rdf-syntax-ns#"
   xmlns:svg="http://www.w3.org/2000/svg"
   xmlns="http://www.w3.org/2000/svg"
   xmlns:sodipodi="http://sodipodi.sourceforge.net/DTD/sodipodi-0.dtd"
   xmlns:inkscape="http://www.inkscape.org/namespaces/inkscape"
   width="210mm"
   height="297mm"
   viewBox="0 0 744.09448819 1052.3622047"
   id="svg2"
   version="1.1"
   inkscape:version="0.91 r13725"
   sodipodi:docname="samlagning.svg"
   inkscape:export-filename="/home/sigurdur/Dropbox/Kennsla/HUF/2019/HaskoliUngaFolksins/lenging.png"
   inkscape:export-xdpi="160"
   inkscape:export-ydpi="160">
  <sodipodi:namedview
     id="base"
     pagecolor="#ffffff"
     bordercolor="#666666"
     borderopacity="1.0"
     inkscape:pageopacity="0.0"
     inkscape:pageshadow="2"
     inkscape:zoom="0.7"
     inkscape:cx="890.50188"
     inkscape:cy="588.41571"
     inkscape:document-units="px"
     inkscape:current-layer="layer1"
     showgrid="false"
     inkscape:window-width="1680"
     inkscape:window-height="985"
     inkscape:window-x="0"
     inkscape:window-y="0"
     inkscape:window-maximized="1" />
  <defs
     id="defs4" />
  <metadata
     id="metadata7">
    <rdf:RDF>
      <cc:Work
         rdf:about="">
        <dc:format>image/svg+xml</dc:format>
        <dc:type
           rdf:resource="http://purl.org/dc/dcmitype/StillImage" />
        <dc:title />
      </cc:Work>
    </rdf:RDF>
  </metadata>
  <g
     id="layer1"
     inkscape:groupmode="layer"
     inkscape:label="Layer 1">
    <flowRoot
       style="fill:black;stroke:none;stroke-opacity:1;stroke-width:1px;stroke-linejoin:miter;stroke-linecap:butt;fill-opacity:1;font-family:sans-serif;font-style:normal;font-weight:normal;font-size:13.75px;line-height:125%;letter-spacing:0px;word-spacing:0px"
       id="flowRoot4252"
       xml:space="preserve"><flowRegion
         id="flowRegion4254"><rect
           y="327.07266"
           x="269.71072"
           height="24.243662"
           width="45.961941"
           id="rect4256" /></flowRegion><flowPara
         id="flowPara4258" /></flowRoot>    <g
       transform="translate(-80,2)"
       id="g4355" />
    <ellipse
       r="51.42857"
       style="opacity:1;fill:#ffffff;fill-opacity:1;stroke:#000000;stroke-width:2.02900004;stroke-miterlimit:10;stroke-dasharray:none;stroke-dashoffset:0;stroke-opacity:1"
       id="path4136-3-7"
       cx="143.11156"
       cy="160.08815" />
    <rect
       inkscape:export-ydpi="160"
       inkscape:export-xdpi="160"
       y="43.219791"
       x="76.771591"
       height="283.85287"
       width="136.37057"
       id="rect5091"
       style="opacity:1;fill:none;fill-opacity:1;stroke:none;stroke-width:2.02900004;stroke-miterlimit:10;stroke-dasharray:none;stroke-dashoffset:0;stroke-opacity:1" />
    <g
       transform="matrix(1.0629921,0,0,-1.0629921,-290.30933,703.41451)"
       id="g5176"
       style="font-style:normal;font-variant:normal;font-weight:normal;font-stretch:normal;letter-spacing:normal;word-spacing:normal;text-anchor:start;fill:none;fill-opacity:1;fill-rule:evenodd;stroke:#000000;stroke-linecap:butt;stroke-linejoin:miter;stroke-miterlimit:10.43299961;stroke-dasharray:none;stroke-dashoffset:0;stroke-opacity:1">
      <path
         style="fill:#000000;stroke-width:0;stroke:#000000"
         inkscape:connector-curvature="0"
         d="m 591.68,448.18 0,0.04 0,0.04 0,0.04 0,0.04 0,0.04 0,0.04 0,0.03 0,0.04 -0.01,0.03 0,0.03 0,0.04 0,0.03 -0.01,0.02 0,0.03 0,0.03 -0.01,0.03 0,0.02 0,0.02 -0.02,0.05 -0.01,0.04 -0.01,0.04 -0.02,0.03 -0.02,0.03 -0.02,0.03 -0.03,0.03 -0.02,0.02 -0.03,0.02 -0.04,0.02 -0.03,0.01 -0.04,0.01 -0.05,0.02 -0.05,0 -0.02,0.01 -0.03,0 -0.03,0.01 -0.02,0 -0.03,0 -0.03,0 -0.04,0 -0.03,0.01 -0.03,0 -0.04,0 -0.03,0 -0.04,0 -0.04,0 -0.04,0 -0.04,0 -0.04,0 -0.05,0 -0.04,0 c -2.24,-2.19 -5.41,-2.23 -6.84,-2.23 l 0,-1.25 c 0.84,0 3.14,0 5.05,0.97 l 0,-17.78 c 0,-1.15 0,-1.61 -3.48,-1.61 l -1.33,0 0,-1.25 12.45,0 0,1.25 -1.32,0 c -3.49,0 -3.49,0.46 -3.49,1.61 z"
         id="path5130" />
      <polyline
         style="fill:#000000;fill-rule:nonzero;stroke-width:0;stroke:#000000"
         points="580,418 599.92,418 599.92,420.04 580,420.04 "
         id="polyline5132" />
      <path
         style="fill:#000000;stroke-width:0;stroke:#000000"
         inkscape:connector-curvature="0"
         d="m 589.52,400.64 0.25,0 0.25,-0.02 0.24,-0.02 0.24,-0.04 0.23,-0.05 0.23,-0.06 0.22,-0.07 0.22,-0.09 0.21,-0.09 0.2,-0.11 0.19,-0.11 0.19,-0.13 0.18,-0.13 0.18,-0.15 0.17,-0.16 0.15,-0.17 0.16,-0.18 0.14,-0.2 0.13,-0.2 0.13,-0.21 0.12,-0.23 0.11,-0.23 0.09,-0.25 0.09,-0.26 0.08,-0.27 0.07,-0.28 0.06,-0.29 0.05,-0.3 0.04,-0.31 0.03,-0.32 0.02,-0.33 0,-0.35 c 0,-4.32 -2.51,-5.61 -4.53,-5.61 -1.39,0 -4.46,0.38 -5.93,2.44 1.64,0.07 2.02,1.22 2.02,1.95 0,1.12 -0.83,1.92 -1.91,1.92 -0.98,0 -1.96,-0.59 -1.96,-2.02 0,-3.28 3.63,-5.41 7.85,-5.41 4.84,0 8.19,3.25 8.19,6.73 0,2.72 -2.23,5.44 -6.07,6.24 3.67,1.33 4.99,3.94 4.99,6.07 0,2.76 -3.17,4.81 -7.04,4.81 -3.87,0 -6.83,-1.88 -6.83,-4.67 0,-1.18 0.76,-1.85 1.81,-1.85 1.08,0 1.77,0.8 1.77,1.78 0,1.01 -0.69,1.75 -1.77,1.81 1.22,1.54 3.62,1.92 4.92,1.92 1.56,0 3.76,-0.76 3.76,-3.8 0,-1.46 -0.49,-3.07 -1.39,-4.15 -1.16,-1.32 -2.13,-1.39 -3.87,-1.5 -0.88,-0.07 -0.95,-0.07 -1.12,-0.1 -0.07,0 -0.35,-0.07 -0.35,-0.46 0,-0.49 0.31,-0.49 0.91,-0.49 z"
         id="path5134" />
    </g>
    <g
       style="font-style:normal;font-variant:normal;font-weight:normal;font-stretch:normal;letter-spacing:normal;word-spacing:normal;text-anchor:start;fill:none;fill-opacity:1;fill-rule:evenodd;stroke:#000000;stroke-linecap:butt;stroke-linejoin:miter;stroke-miterlimit:10.43299961;stroke-dasharray:none;stroke-dashoffset:0;stroke-opacity:1"
       id="g5258"
       transform="matrix(1.0629921,0,0,-1.0629921,-81.165704,602.35359)"
       xml:space="preserve"
       stroke-miterlimit="10.433"
       font-style="normal"
       font-variant="normal"
       font-weight="normal"
       font-stretch="normal"
       font-size-adjust="none"
       letter-spacing="normal"
       word-spacing="normal"><path
         style="fill:#000000;stroke:#000000;stroke-width:0"
         inkscape:connector-curvature="0"
         d="m 490.22,422.29 0.14,0 0.15,0 0.15,0.01 0.07,0 0.07,0 0.07,0.01 0.08,0.01 0.07,0.01 0.07,0.01 0.06,0.02 0.07,0.01 0.07,0.02 0.06,0.02 0.06,0.03 0.06,0.03 0.05,0.03 0.06,0.03 0.05,0.04 0.04,0.04 0.05,0.05 0.03,0.05 0.02,0.03 0.02,0.02 0.02,0.03 0.01,0.03 0.02,0.03 0.01,0.04 0.01,0.03 0.01,0.04 0.01,0.03 0.01,0.04 0.01,0.04 0,0.04 0.01,0.04 0,0.04 0,0.05 0,0.05 c 0,0.99 -0.94,0.99 -1.64,0.99 l -29.84,0 c -0.7,0 -1.64,0 -1.64,-0.99 0,-1 0.94,-1 1.69,-1 z"
         id="path5260" /><path
         style="fill:#000000;stroke:#000000;stroke-width:0"
         inkscape:connector-curvature="0"
         d="m 490.27,412.62 0.13,0.01 0.14,0 0.14,0 0.07,0.01 0.07,0 0.07,0.01 0.07,0.01 0.07,0.01 0.07,0.01 0.06,0.01 0.07,0.02 0.06,0.02 0.06,0.02 0.06,0.02 0.06,0.03 0.06,0.03 0.05,0.04 0.05,0.04 0.04,0.04 0.05,0.04 0.02,0.03 0.02,0.03 0.01,0.02 0.02,0.03 0.02,0.03 0.01,0.03 0.02,0.03 0.01,0.03 0.01,0.04 0.01,0.03 0.01,0.04 0.01,0.04 0.01,0.04 0,0.04 0.01,0.04 0,0.04 0,0.05 0,0.04 c 0,1 -0.94,1 -1.69,1 l -29.74,0 c -0.75,0 -1.69,0 -1.69,-1 0,-1 0.94,-1 1.64,-1 z"
         id="path5262" /></g>    <circle
       r="51.42857"
       style="opacity:1;fill:#ffffff;fill-opacity:1;stroke:#000000;stroke-width:2.02900004;stroke-miterlimit:10;stroke-dasharray:none;stroke-dashoffset:0;stroke-opacity:1"
       id="path4136-3-7-1"
       cx="335.71426"
       cy="155.21935" />
    <path
       sodipodi:nodetypes="cc"
       style="opacity:1;fill:#ff0000;fill-opacity:1;stroke:#000000;stroke-width:2.02900004;stroke-miterlimit:10;stroke-dasharray:none;stroke-dashoffset:0;stroke-opacity:1"
       d="m 334.82142,156.41078 0.89286,49.31619"
       id="path4157-5-8"
       inkscape:connector-curvature="0" />
    <path
       style="opacity:1;fill:none;fill-opacity:1;stroke:#000000;stroke-width:2.02900004;stroke-miterlimit:10;stroke-dasharray:none;stroke-dashoffset:0;stroke-opacity:1"
       d="m 290.51666,131.4542 44.45902,25.41843 -40.73965,27.0562"
       id="path4332-7"
       inkscape:connector-curvature="0"
       sodipodi:nodetypes="ccc" />
    <path
       sodipodi:nodetypes="ccssccsccscccssssccccccscccccccsscc"
       style="opacity:1;fill:#ff0000;fill-opacity:1;stroke:none;stroke-width:0.72464287;stroke-miterlimit:10;stroke-dasharray:none;stroke-dashoffset:0;stroke-opacity:1"
       d="m 290.74522,133.5696 c -0.13111,-2.7e-4 -0.20791,0.0396 -0.25781,0.10547 -0.73706,0.97203 -2.61599,6.12604 -3.48438,9.55859 -0.86775,3.43 -1.60546,9.23483 -1.60546,12.64062 l 0,2.07618 1.69726,-0.12891 c 0.93304,-0.0703 13.91992,8.93692 23.83955,8.44671 9.91965,-0.49021 15.10717,-10.45117 16.54911,-10.5678 l 2.62305,-0.21289 -19.58594,-11.20118 C 295.22102,135.53655 291.663,133.57144 290.74522,133.5696 Z m 42.33147,24.84347 c -1.92252,-0.0233 -47.49517,-1.35876 -47.63587,-1.22573 -0.28776,0.27205 1.46266,10.03065 2.50948,13.31976 1.03688,3.25786 3.33421,8.32941 4.97266,10.98047 0.58631,0.94865 3.19341,5.06307 3.66322,4.80357 0.32851,-0.18145 9.07031,-7.14916 18.98995,-13.73912 14.53389,-9.65536 18.36396,-14.12855 17.50056,-14.13895 z m 1.56696,1.60575 -4.21513,-4.82199 c -14.34045,-1.35528 -18.0597,42.852 -18.45758,43.62974 l 3.44224,2.37975 3.11719,1.1289 c 3.87136,1.40233 7.96262,2.38478 11.68945,2.80469 1.57143,0.17705 3.21819,0.34149 3.66016,0.36719 l 0.80468,0.0469 -0.0215,-22.76758 -0.19807,-23.30328 z m -1.91323,-1.17997 c -0.15444,-0.15443 -37.12624,25.65875 -37.25864,26.00419 -0.16298,0.42525 3.08594,4.17498 6.05079,6.98242 2.89669,2.74296 6.3788,5.34397 9.32225,6.96679 1.03173,0.56883 2.036,1.03525 2.23242,1.03516 0.3416,-1.7e-4 19.88563,-40.7561 19.65318,-40.98856 z"
       id="path5017-9"
       inkscape:connector-curvature="0" />
    <path
       sodipodi:nodetypes="cc"
       inkscape:connector-curvature="0"
       id="path4796-2"
       d="m 378.43872,128.77523 -41.96466,27.8479"
       style="opacity:1;fill:none;fill-opacity:1;stroke:#000000;stroke-width:2.02900004;stroke-miterlimit:10;stroke-dasharray:none;stroke-dashoffset:0;stroke-opacity:1" />
    <rect
       y="86.656349"
       x="56.568542"
       height="228.29445"
       width="361.63458"
       id="rect5921"
       style="opacity:1;fill:none;fill-opacity:1;stroke:none;stroke-width:2.02900004;stroke-miterlimit:10;stroke-dasharray:none;stroke-dashoffset:0;stroke-opacity:1"
       inkscape:export-ydpi="160"
       inkscape:export-xdpi="160" />
    <circle
       r="51.42857"
       style="opacity:1;fill:#ffffff;fill-opacity:1;stroke:#000000;stroke-width:2.02900004;stroke-miterlimit:10;stroke-dasharray:none;stroke-dashoffset:0;stroke-opacity:1"
       id="path4136-3-7-1-5"
       cx="522.24884"
       cy="152.31628" />
    <path
       sodipodi:nodetypes="cc"
       style="opacity:1;fill:#ff0000;fill-opacity:1;stroke:#000000;stroke-width:2.02900004;stroke-miterlimit:10;stroke-dasharray:none;stroke-dashoffset:0;stroke-opacity:1"
       d="m 521.35602,153.50772 0.89286,49.31619"
       id="path4157-5-8-9"
       inkscape:connector-curvature="0" />
    <path
       style="opacity:1;fill:none;fill-opacity:1;stroke:#000000;stroke-width:2.02900004;stroke-miterlimit:10;stroke-dasharray:none;stroke-dashoffset:0;stroke-opacity:1"
       d="m 477.05126,128.55114 44.45902,25.41843 -40.73965,27.0562"
       id="path4332-7-2"
       inkscape:connector-curvature="0"
       sodipodi:nodetypes="ccc" />
    <path
       sodipodi:nodetypes="ccssccsccscccssssccccccscccccccsscc"
       style="opacity:1;fill:#ff0000;fill-opacity:1;stroke:none;stroke-width:0.72464287;stroke-miterlimit:10;stroke-dasharray:none;stroke-dashoffset:0;stroke-opacity:1"
       d="m 477.27982,130.66654 c -0.13111,-2.7e-4 -0.20791,0.0396 -0.25781,0.10547 -0.73706,0.97203 -2.61599,6.12604 -3.48438,9.55859 -0.86775,3.43 -1.60546,9.23483 -1.60546,12.64062 l 0,2.07618 1.69726,-0.12891 c 0.93304,-0.0703 13.91992,8.93692 23.83955,8.44671 9.91965,-0.49021 15.10717,-10.45117 16.54911,-10.5678 l 2.62305,-0.21289 -19.58594,-11.20118 c -15.29958,-8.74984 -18.8576,-10.71495 -19.77538,-10.71679 z m 42.33147,24.84347 c -1.92252,-0.0233 -47.49517,-1.35876 -47.63587,-1.22573 -0.28776,0.27205 1.46266,10.03065 2.50948,13.31976 1.03688,3.25786 3.33421,8.32941 4.97266,10.98047 0.58631,0.94865 3.19341,5.06307 3.66322,4.80357 0.32851,-0.18145 9.07031,-7.14916 18.98995,-13.73912 14.53389,-9.65536 18.36396,-14.12855 17.50056,-14.13895 z m 1.56696,1.60575 -4.21513,-4.82199 c -14.34045,-1.35528 -18.0597,42.852 -18.45758,43.62974 l 3.44224,2.37975 3.11719,1.1289 c 3.87136,1.40233 7.96262,2.38478 11.68945,2.80469 1.57143,0.17705 3.21819,0.34149 3.66016,0.36719 l 0.80468,0.0469 -0.0215,-22.76758 -0.19807,-23.30328 z m -1.91323,-1.17997 c -0.15444,-0.15443 -37.12624,25.65875 -37.25864,26.00419 -0.16298,0.42525 3.08594,4.17498 6.05079,6.98242 2.89669,2.74296 6.3788,5.34397 9.32225,6.96679 1.03173,0.56883 2.036,1.03525 2.23242,1.03516 0.3416,-1.7e-4 19.88563,-40.7561 19.65318,-40.98856 z"
       id="path5017-9-2"
       inkscape:connector-curvature="0" />
    <path
       sodipodi:nodetypes="cc"
       inkscape:connector-curvature="0"
       id="path4796-2-8"
       d="m 564.97332,125.87217 -41.96466,27.8479"
       style="opacity:1;fill:none;fill-opacity:1;stroke:#000000;stroke-width:2.02900004;stroke-miterlimit:10;stroke-dasharray:none;stroke-dashoffset:0;stroke-opacity:1" />
    <g
       id="g6012"
       transform="translate(209.10158,-89.903577)">
      <g
         word-spacing="normal"
         letter-spacing="normal"
         font-size-adjust="none"
         font-stretch="normal"
         font-weight="normal"
         font-variant="normal"
         font-style="normal"
         stroke-miterlimit="10.433"
         xml:space="preserve"
         transform="matrix(1.0629921,0,0,-1.0629921,-186.02362,789.27165)"
         id="content"
         style="font-style:normal;font-variant:normal;font-weight:normal;font-stretch:normal;letter-spacing:normal;word-spacing:normal;text-anchor:start;fill:none;fill-opacity:1;fill-rule:evenodd;stroke:#000000;stroke-linecap:butt;stroke-linejoin:miter;stroke-miterlimit:10.43299961;stroke-dasharray:none;stroke-dashoffset:0;stroke-opacity:1"><path
           id="path6015"
           d="m 471.52,437.64 0.25,0 0.25,-0.02 0.24,-0.02 0.24,-0.04 0.23,-0.05 0.23,-0.06 0.22,-0.07 0.22,-0.09 0.21,-0.09 0.2,-0.11 0.19,-0.11 0.19,-0.13 0.18,-0.13 0.18,-0.15 0.17,-0.16 0.15,-0.17 0.16,-0.18 0.14,-0.2 0.13,-0.2 0.13,-0.21 0.12,-0.23 0.11,-0.23 0.09,-0.25 0.09,-0.26 0.08,-0.27 0.07,-0.28 0.06,-0.29 0.05,-0.3 0.04,-0.31 0.03,-0.32 0.02,-0.33 0,-0.35 c 0,-4.32 -2.51,-5.61 -4.53,-5.61 -1.39,0 -4.46,0.38 -5.93,2.44 1.64,0.07 2.02,1.22 2.02,1.95 0,1.12 -0.83,1.92 -1.91,1.92 -0.98,0 -1.96,-0.59 -1.96,-2.02 0,-3.28 3.63,-5.41 7.85,-5.41 4.84,0 8.19,3.25 8.19,6.73 0,2.72 -2.23,5.44 -6.06,6.24 3.66,1.33 4.98,3.94 4.98,6.07 0,2.76 -3.17,4.81 -7.04,4.81 -3.87,0 -6.84,-1.88 -6.84,-4.67 0,-1.18 0.77,-1.85 1.82,-1.85 1.08,0 1.77,0.8 1.77,1.78 0,1.01 -0.69,1.75 -1.77,1.81 1.22,1.54 3.62,1.92 4.92,1.92 1.56,0 3.76,-0.76 3.76,-3.8 0,-1.46 -0.49,-3.07 -1.39,-4.15 -1.16,-1.32 -2.13,-1.39 -3.87,-1.5 -0.88,-0.07 -0.95,-0.07 -1.12,-0.1 -0.07,0 -0.35,-0.07 -0.35,-0.46 0,-0.49 0.31,-0.49 0.91,-0.49 z"
           inkscape:connector-curvature="0"
           style="fill:#000000;stroke-width:0" /><polyline
           id="polyline6017"
           points="462,418 481.92,418 481.92,420.04 462,420.04 "
           style="fill:#000000;fill-rule:nonzero;stroke-width:0" /><path
           id="path6019"
           d="m 476.57,399.39 0,-0.4 -0.01,-0.39 -0.01,-0.38 -0.02,-0.37 -0.03,-0.35 -0.03,-0.35 -0.04,-0.34 -0.04,-0.33 -0.05,-0.32 -0.06,-0.31 -0.05,-0.3 -0.07,-0.29 -0.06,-0.28 -0.07,-0.28 -0.08,-0.26 -0.08,-0.26 -0.08,-0.24 -0.09,-0.24 -0.09,-0.23 -0.09,-0.22 -0.2,-0.43 -0.21,-0.39 -0.22,-0.36 -0.24,-0.33 -0.23,-0.3 -0.25,-0.28 -0.25,-0.25 -0.26,-0.23 -0.26,-0.2 -0.27,-0.19 -0.26,-0.16 -0.27,-0.14 -0.26,-0.12 -0.27,-0.11 -0.26,-0.09 -0.25,-0.07 -0.25,-0.06 -0.24,-0.05 -0.23,-0.03 -0.23,-0.03 -0.21,-0.01 -0.2,0 c -0.77,0 -2.62,0.07 -3.56,1.15 1.43,0.14 1.53,1.32 1.53,1.64 0,0.87 -0.59,1.64 -1.64,1.64 -1.04,0 -1.67,-0.7 -1.67,-1.71 0,-2.37 1.99,-3.84 5.37,-3.84 4.98,0 9.69,4.71 9.69,12.17 0,8.65 -3.83,11.68 -7.91,11.68 -1.15,0 -3.56,-0.17 -5.55,-2.12 -1.18,-1.15 -2.58,-2.51 -2.58,-5.65 0,-4.43 3.53,-7.71 7.6,-7.71 l 0.18,0.98 c -1.36,0 -2.65,0.45 -3.63,2.05 -0.8,1.3 -0.8,2.76 -0.8,4.68 0,2.02 0,3.41 1.01,4.81 0.84,1.22 1.99,1.95 3.8,1.95 1.78,0 2.83,-1.11 3.39,-2.02 0.94,-1.46 1.04,-3.91 1.04,-5.13 0,-4.53 -2.61,-6.34 -4.81,-6.34 l 0,0 -0.18,-0.98 c 2.79,0 4.29,1.85 5.09,3.42 z"
           inkscape:connector-curvature="0"
           style="fill:#000000;stroke-width:0" /></g>    </g>
    <path
       style="opacity:1;fill:none;fill-opacity:1;stroke:#000000;stroke-width:2.02900004;stroke-miterlimit:10;stroke-dasharray:none;stroke-dashoffset:0;stroke-opacity:1"
       d="m 472.14285,161.29075 48.92858,-7.14285 -29.64286,38.21428"
       id="path6054"
       inkscape:connector-curvature="0"
       sodipodi:nodetypes="ccc" />
    <path
       style="opacity:1;fill:none;fill-opacity:1;stroke:#000000;stroke-width:2.02900004;stroke-miterlimit:10;stroke-dasharray:none;stroke-dashoffset:0;stroke-opacity:1"
       d="M 539.91445,104.18063 521.63224,154.98019 503.3549,105.05918"
       id="path6054-9"
       inkscape:connector-curvature="0"
       sodipodi:nodetypes="ccc" />
    <path
       style="opacity:1;fill:none;fill-opacity:1;stroke:#000000;stroke-width:2.02900004;stroke-miterlimit:10;stroke-dasharray:none;stroke-dashoffset:0;stroke-opacity:1"
       d="m 555.48042,192.59401 -32.43136,-38.66594 49.8889,6.53174"
       id="path6054-9-7"
       inkscape:connector-curvature="0"
       sodipodi:nodetypes="ccc" />
  </g>
</svg>
